PathFileType	4	(X/Y/Z)	C:/Users/opensim2020/Desktop/walking_exp_matlab/subject01_walking08_straight_04.trc																																																																																																																															
DataRate	CameraRate	NumFrames	NumMarkers	Units	OrigDataRate	OrigDataStartFrame	OrigNumFrames																																																																																																																											
100	100	5	43	mm	100	3755	256																																																																																																																											
Frame#	Time	LFHD			RFHD			LBHD			RBHD			C7			T10			CLAV			STRN			RBAK			LSHO			LUPA			LELB			LFRM			LWRA			LWRB			LFIN			RSHO			RUPA			RELB			RFRM			RWRA			RWRB			RFIN			LASI			RASI			LPSI			RPSI			LTHI			LKNE			LTIB			LANK			LHEE			LTOE			RTHI			RKNE			RTIB			RANK			RHEE			RTOE			*39			*40			*41			*42		
		X1	Y1	Z1	X2	Y2	Z2	X3	Y3	Z3	X4	Y4	Z4	X5	Y5	Z5	X6	Y6	Z6	X7	Y7	Z7	X8	Y8	Z8	X9	Y9	Z9	X10	Y10	Z10	X11	Y11	Z11	X12	Y12	Z12	X13	Y13	Z13	X14	Y14	Z14	X15	Y15	Z15	X16	Y16	Z16	X17	Y17	Z17	X18	Y18	Z18	X19	Y19	Z19	X20	Y20	Z20	X21	Y21	Z21	X22	Y22	Z22	X23	Y23	Z23	X24	Y24	Z24	X25	Y25	Z25	X26	Y26	Z26	X27	Y27	Z27	X28	Y28	Z28	X29	Y29	Z29	X30	Y30	Z30	X31	Y31	Z31	X32	Y32	Z32	X33	Y33	Z33	X34	Y34	Z34	X35	Y35	Z35	X36	Y36	Z36	X37	Y37	Z37	X38	Y38	Z38	X39	Y39	Z39	X40	Y40	Z40	X41	Y41	Z41	X42	Y42	Z42	X43	Y43	Z43
																																																																																																																																		
97	0.96	-389.70087	1670.19128	-1512.87988	-369.62579	1675.38025	-1401.00842	-508.34265	1633.14673	-1498.45569	-490.38287	1637.74548	-1378.93628	-552.84363	1434.50513	-1452.16479	-584.40881	1140.3418	-1436.46484	-409.74481	1367.76099	-1456.57178	-363.5278	1214.3031	-1461.89612	-600.52197	1238.5271	-1368.16028	-474.61807	1396.64075	-1616.08105	-513.32935	1212.13672	-1695.29407	-535.34119	1061.61133	-1691.37634	-498.69171	953.72321	-1717.9458	-416.33313	840.46509	-1705.02039	-473.51199	834.06659	-1724.12939	-425.08914	764.82629	-1736.00293	-467.10535	1396.92493	-1303.00916	-507.60864	1194.72571	-1196.03833	-495.72171	1069.4967	-1190.75659	-449.30914	958.04089	-1161.09106	-351.60489	856.03967	-1183.7655	-393.02487	850.47437	-1142.17444	-343.13278	780.76587	-1145.47461	-411.47418	936.91602	-1548.99866	-400.68021	939.54425	-1331.72595	-594.40918	941.93854	-1490.69141	-586.35925	947.96075	-1346.22583	-362.54007	618.83051	-1616.76978	-344.29962	486.56531	-1606.81897	-469.14618	349.80109	-1609.47876	-596.38593	172.79494	-1557.96887	-642.3869	163.08876	-1497.03931	-497.72516	69.45731	-1579.85669	-450.40906	603.11163	-1287.01599	-443.48846	445.28583	-1319.6123	-499.11768	277.17493	-1318.9021	-531.58234	75.80786	-1375.172	-583.00598	39.55426	-1425.11316	-391.36386	36.87975	-1377.01514	-380.6575	1709.53027	-1422.94946	-1973.20996	1023.56506	3101.80835	-2012.5116	1022.03925	3140.60596	NaN	NaN	NaN
98	0.97	-381.90915	1670.00562	-1512.82861	-361.82712	1675.25977	-1400.93909	-500.65469	1633.2511	-1498.32178	-482.58298	1637.92371	-1378.80554	-545.57404	1434.66211	-1451.87988	-577.45917	1140.50488	-1435.82629	-402.56796	1367.73035	-1456.38281	-356.57645	1214.22229	-1461.59595	-593.44958	1238.83997	-1367.57092	-467.53653	1396.60229	-1615.85925	-507.08823	1212.11182	-1694.82922	-529.77936	1061.78052	-1690.51807	-494.34644	953.56946	-1716.82629	-413.44406	839.20087	-1703.43005	-470.60059	833.52893	-1722.76794	-423.08636	763.60626	-1734.28491	-459.86588	1397.16418	-1302.72498	-500.30371	1195.04675	-1195.40356	-488.21994	1069.92188	-1189.63208	-440.33121	958.67169	-1160.25073	-341.33731	858.16943	-1183.31274	-382.50775	851.88226	-1141.60864	-331.83786	782.93585	-1145.10461	-404.96829	937.13391	-1548.51123	-394.38037	938.99457	-1331.35071	-587.92651	942.27759	-1490.67151	-580.15137	948.12665	-1346.22803	-353.17087	620.42859	-1616.63867	-333.37689	488.19934	-1606.00598	-453.88382	346.86389	-1608.95337	-574.45984	165.26483	-1557.38379	-619.87762	153.09093	-1496.35266	-471.26877	67.28176	-1580.96875	-446.81918	602.80585	-1287.14563	-441.37677	444.88657	-1319.67029	-498.06827	277.01587	-1318.88721	-531.41937	75.86607	-1375.27795	-582.96002	39.69051	-1425.14417	-391.69461	36.4859	-1377.1416	-372.84409	1709.33887	-1422.94104	-1973.23621	1023.4129	3101.79224	-2012.42407	1021.9671	3140.65796	NaN	NaN	NaN
99	0.98	-374.14243	1669.84851	-1512.82581	-354.09616	1675.11731	-1400.97388	-492.94235	1633.32312	-1498.28369	-474.87704	1638.00073	-1378.73987	-538.21844	1434.76758	-1451.60693	-570.51178	1140.6897	-1435.30615	-395.32114	1367.57397	-1456.14868	-349.73636	1213.91003	-1461.24976	-586.3233	1239.12256	-1367.01025	-460.45166	1396.52295	-1615.6626	-500.86145	1212.08704	-1694.39612	-524.14746	1061.91199	-1689.66846	-489.84256	953.38184	-1715.78992	-410.39725	837.98193	-1701.93262	-467.74548	833.20038	-1721.8833	-420.82458	762.41833	-1732.66309	-452.42053	1397.1665	-1302.5116	-493.01187	1195.39478	-1194.77478	-480.73221	1070.07788	-1188.86133	-431.50641	959.37903	-1159.58667	-331.08499	860.05591	-1183.01733	-371.78378	853.40973	-1141.49536	-320.51279	785.02545	-1144.85681	-398.53122	937.35168	-1548.18225	-388.10944	938.3053	-1331.07996	-581.45709	942.62958	-1490.69995	-573.84741	948.2558	-1346.16504	-343.53302	622.0484	-1616.59521	-322.88489	489.86301	-1605.30359	-438.57159	343.69391	-1608.52136	-552.04211	157.54123	-1556.96008	-596.86755	143.09869	-1496.11316	-444.40216	65.15542	-1581.99512	-443.20944	602.40277	-1287.18262	-439.284	444.41806	-1319.61707	-496.97156	276.93912	-1318.96423	-531.33673	75.91791	-1375.35376	-582.93939	39.91823	-1425.18738	-391.64258	36.46231	-1377.12927	-365.00031	1709.22888	-1422.99487	-1973.07629	1023.52911	3101.79248	-2012.59253	1022.00012	3140.65039	NaN	NaN	NaN
100	0.99	-366.4747	1669.70618	-1512.91223	-346.28561	1675.06677	-1401.06848	-485.30685	1633.36072	-1498.31226	-467.1322	1638.08032	-1378.75342	-530.82977	1434.91724	-1451.47729	-563.51599	1140.86377	-1434.77734	-388.10934	1367.42407	-1456.01904	-343.48218	1213.43274	-1461.00317	-579.24377	1239.39636	-1366.51636	-453.32312	1396.41394	-1615.55383	-494.54626	1211.81323	-1693.6936	-518.51556	1062.0177	-1688.93628	-485.24988	953.14587	-1714.80103	-407.1983	836.8631	-1700.54041	-464.45444	832.70679	-1720.703	-418.44421	761.36151	-1731.17126	-444.99203	1397.27075	-1302.48474	-485.41177	1195.67029	-1194.27783	-473.24033	1070.29309	-1187.85388	-422.57956	959.96442	-1158.86914	-321.03223	862.25079	-1182.68433	-361.90979	854.69678	-1140.98901	-309.29282	787.23236	-1144.75293	-392.08896	937.50958	-1547.90601	-381.39963	937.83453	-1330.78088	-574.96478	943.00769	-1490.75793	-567.5769	948.49738	-1346.25171	-334.4577	623.78577	-1616.51245	-312.78595	491.24698	-1604.57654	-423.11005	340.37061	-1608.36267	-528.98145	149.73543	-1556.78259	-573.02155	133.0013	-1495.7937	-417.33829	63.13871	-1583.2146	-439.55112	601.97333	-1287.30725	-437.04773	443.89612	-1319.50793	-495.83313	276.94141	-1318.91577	-531.13721	75.9135	-1375.32214	-582.10565	40.0309	-1424.93738	-391.86414	36.20265	-1377.06946	-357.1337	1709.1189	-1423.00537	-1973.21436	1023.54254	3101.80688	-2012.57336	1021.97522	3140.72192	NaN	NaN	NaN
101	1	-358.75626	1669.48999	-1512.97266	-338.55746	1674.85034	-1401.20862	-477.66052	1633.31665	-1498.36023	-459.47314	1638.07861	-1378.86487	-523.43976	1434.94958	-1451.28345	-556.52527	1141.02258	-1434.32275	-380.77548	1367.45605	-1456.12122	-336.47922	1213.08362	-1460.90784	-572.06409	1239.59448	-1366.12317	-446.18967	1396.23804	-1615.47168	-488.15182	1211.651	-1693.3396	-512.76001	1062.07813	-1688.28687	-480.54437	952.90326	-1713.90369	-403.80411	835.7088	-1699.09277	-460.99814	832.15631	-1719.51965	-415.72391	760.2392	-1729.65698	-437.62122	1397.40771	-1302.39807	-478.14301	1195.97412	-1193.7229	-465.83569	1070.50378	-1187.16895	-413.88705	960.66443	-1158.30981	-311.03821	864.41803	-1182.3811	-351.91031	856.22729	-1140.78894	-298.06317	789.3067	-1144.69678	-385.18997	938.0462	-1547.70605	-375.39557	937.04205	-1330.61572	-568.45721	943.40198	-1490.81531	-561.22162	948.74835	-1346.3501	-325.92001	624.93768	-1616.59912	-302.98621	492.59082	-1604.07959	-407.51822	337.08142	-1608.51111	-505.53464	142.07133	-1556.86694	-548.6424	123.01028	-1495.71558	-389.82794	61.46491	-1584.15369	-435.8175	601.53558	-1287.3717	-434.789	443.57831	-1319.59021	-494.75595	276.901	-1318.85376	-530.97882	75.97544	-1375.39709	-582.06439	40.25895	-1424.96106	-391.85364	36.20068	-1377.13977	-349.52576	1708.94568	-1423.15039	-1973.17798	1023.44629	3101.88013	-2012.57227	1022.01031	3140.65674	NaN	NaN	NaN
